<svg id="Capa_1" enable-background="new 0 0 512 512" height="512" viewBox="0 0 512 512" width="512" xmlns="http://www.w3.org/2000/svg"><g><g><g><g><g><g><g><g><g><g><g><g><g><g><g><g><g><g><g><g><g><g><path d="m131.114 479.524c-78.232-43.803-131.114-127.488-131.114-223.524 0-141.385 114.615-256 256-256s256 114.615 256 256c0 96.035-52.881 179.719-131.112 223.523z" fill="#ff6c52"/></g></g></g></g></g></g></g></g></g></g></g></g></g></g></g></g></g></g></g></g></g><path d="m380.884 479.525c78.234-43.803 131.116-127.489 131.116-223.525 0-13.717-1.079-27.182-3.156-40.314l-119.323-119.323-278.118 139.369 240.177 240.177z" fill="#f92814"/><g><path d="m131.096 479.514c36.946 20.69 79.548 32.486 124.904 32.486s87.958-11.796 124.904-32.486l-51.222-211.454h-147.364z" fill="#e9edf5"/></g><g><path d="m329.682 268.06h-73.561v243.939c45.311-.021 87.87-11.813 124.784-32.485z" fill="#cdd2e1"/></g><g><path d="m159.232 241.627h-30.329c-17.69 0-31.229-15.75-28.572-33.24l14.677-96.625c2.145-14.123 14.287-24.56 28.572-24.56h15.652c15.961 0 28.9 12.939 28.9 28.9v96.625c0 15.961-12.939 28.9-28.9 28.9z" fill="#dce1eb"/></g><g><path d="m352.768 241.627h30.329c17.69 0 31.229-15.75 28.572-33.24l-14.677-96.625c-2.145-14.123-14.287-24.56-28.572-24.56h-15.652c-15.961 0-28.9 12.939-28.9 28.9v96.625c0 15.961 12.939 28.9 28.9 28.9z" fill="#bec3d2"/></g><g><path d="m287.117 313.589h-62.234c-24.033 0-44.711-16.994-49.367-40.572l-25.481-129.043c-6.142-31.104 17.663-60.068 49.367-60.068h113.197c31.704 0 55.509 28.965 49.367 60.068l-25.481 129.043c-4.657 23.577-25.335 40.572-49.368 40.572z" fill="#fff"/></g><g><path d="m312.598 83.906h-56.478v229.683h30.997c24.033 0 44.711-16.994 49.367-40.572l25.481-129.043c6.142-31.103-17.662-60.068-49.367-60.068z" fill="#e9edf5"/></g><g><ellipse cx="256" cy="238.737" fill="#636978" rx="40.724" ry="29.324"/></g><g><path d="m296.724 238.737c0-16.166-18.168-29.274-40.603-29.322v58.643c22.435-.047 40.603-13.156 40.603-29.321z" fill="#414952"/></g><g><path d="m241 248.405h30v65.183h-30z" fill="#636978"/></g><g><path d="m256.121 248.405h14.879v65.184h-14.879z" fill="#414952"/></g><g><g><circle cx="194.243" cy="171.691" fill="#636978" r="14.922"/></g><g><circle cx="317.757" cy="171.691" fill="#414952" r="14.922"/></g></g></g></svg>