<svg id="Capa_1" enable-background="new 0 0 497 497" height="512" viewBox="0 0 497 497" width="512" xmlns="http://www.w3.org/2000/svg"><g><path d="m92.679 364.551c-223.14-236.341 8.05-456.062 155.821-293.702 147.771-162.361 378.961 57.36 155.821 293.701h-311.642z" fill="#b08bd7"/><path d="m346.07 234.97-61.85-69.35 47.69-70.75c11.18-16.58 35.66-16.69 46.8-.08z" fill="#5c586f"/><path d="m150.93 234.97 61.85-69.35-47.69-70.75c-11.18-16.58-35.66-16.69-46.8-.08z" fill="#5c586f"/><path d="m394.371 289.13-48.3-54.16c-9.82-89.47 32.64-140.181 32.64-140.181 21.75 32.441 44.41 93.871 15.66 194.341z" fill="#ffc8e5"/><path d="m59.209 199.84c0-72.578 26.818-138.122 73.224-184.876-117.889 2.527-208.061 171.323-39.754 349.587h31.802c-40.071-48.788-65.272-107.006-65.272-164.711z" fill="#a47cd1"/><path d="m102.629 289.13 48.3-54.16c9.82-89.47-32.64-140.181-32.64-140.181-21.75 32.441-44.41 93.871-15.66 194.341z" fill="#ffc8e5"/><path d="m131.81 401.991c-14.36-12.49-27.38-24.99-39.13-37.44l9.95-75.42c4.83-36.59 22.84-68.57 48.87-91.4 26.04-22.82 60.09-36.5 97-36.5 73.82 0 136.221 54.71 145.871 127.901l9.95 75.42c-11.75 12.45-24.77 24.95-39.13 37.44h-233.381z" fill="#6a647f"/><path d="m97.662 326.779-4.983 37.771c11.75 12.45 24.77 24.95 39.13 37.44h28.383c-24.574-22.268-45.888-47.804-62.53-75.211z" fill="#5c586f"/><path d="m365.19 401.991c-29.99 26.1-65.84 52.16-108.25 77.71-5.27 3.17-11.61 3.17-16.88 0-42.41-25.55-78.26-51.61-108.25-77.71l15.43-116.98c4.55-34.46 38.92-48.14 65.04-35.1 22.36 11.17 50.13 11.15 72.44 0 27.02-13.49 59.73 2.22 64.58 32.03.36 2.149-1.06-8.461 15.89 120.05z" fill="#dadada"/><path d="m268.125 335.464c0 6.197-8.786 11.22-19.625 11.22-10.838 0-19.625-5.023-19.625-11.22s8.786-6.259 19.625-6.259c10.838.001 19.625.063 19.625 6.259z" fill="#423e4f"/><g fill="#423e4f"><path d="m180.858 316.054c-4.143 0-7.5 3.358-7.5 7.5v12.981c0 4.142 3.357 7.5 7.5 7.5s7.5-3.358 7.5-7.5v-12.981c0-4.142-3.357-7.5-7.5-7.5z"/><path d="m315.97 316.054c-4.143 0-7.5 3.358-7.5 7.5v12.981c0 4.142 3.357 7.5 7.5 7.5s7.5-3.358 7.5-7.5v-12.981c0-4.142-3.358-7.5-7.5-7.5z"/><path d="m279.887 352.776c-4.143 0-7.5 3.358-7.5 7.5 0 4.487-3.651 8.138-8.139 8.138s-8.138-3.65-8.138-8.138c0-4.142-3.357-7.5-7.5-7.5s-7.5 3.358-7.5 7.5c0 4.487-3.65 8.138-8.138 8.138s-8.138-3.65-8.138-8.138c0-4.142-3.357-7.5-7.5-7.5s-7.5 3.358-7.5 7.5c0 12.758 10.38 23.138 23.138 23.138 6.024 0 11.516-2.316 15.638-6.102 4.121 3.786 9.614 6.102 15.638 6.102 12.759 0 23.139-10.379 23.139-23.138 0-4.142-3.358-7.5-7.5-7.5z"/></g><path d="m135.122 376.879-3.312 25.112c29.99 26.1 65.84 52.16 108.25 77.71 5.27 3.17 11.61 3.17 16.88 0 5.185-3.124 10.268-6.255 15.259-9.393-51.799-18.787-99.8-52.164-137.077-93.429z" fill="#ccccca"/></g></svg>